<?xml version="1.0" standalone="no"?>
<!DOCTYPE svg PUBLIC "-//W3C//DTD SVG 20010904//EN"
 "http://www.w3.org/TR/2001/REC-SVG-20010904/DTD/svg10.dtd">
<svg version="1.0" xmlns="http://www.w3.org/2000/svg"
 width="512.000000pt" height="512.000000pt" viewBox="0 0 512.000000 512.000000"
 preserveAspectRatio="xMidYMid meet">

<g transform="translate(0.000000,512.000000) scale(0.100000,-0.100000)"
fill="#000000" stroke="none">
<path d="M2405 5034 c-207 -29 -385 -80 -538 -153 -270 -129 -550 -390 -689
-643 l-43 -77 -144 -1 c-83 0 -161 -5 -185 -12 -55 -16 -138 -99 -154 -154
-17 -57 -17 -890 0 -946 15 -49 76 -120 125 -144 29 -14 69 -20 162 -24 l124
-5 34 -79 c18 -43 32 -80 31 -81 -2 -1 -27 -10 -56 -20 -68 -22 -139 -71 -180
-125 -29 -37 -45 -48 -102 -66 -250 -79 -472 -270 -594 -511 -153 -301 -154
-638 -4 -938 53 -104 86 -152 165 -236 l65 -69 -11 -94 c-6 -52 -11 -203 -11
-335 l0 -241 2160 0 2160 0 0 241 c0 132 -5 283 -11 335 l-11 94 65 69 c78 83
112 132 162 231 204 404 129 881 -188 1202 -110 112 -271 211 -412 254 -33 10
-66 28 -74 39 -50 71 -154 143 -228 160 -18 3 -33 8 -33 10 0 2 15 38 33 82
l34 78 124 5 c93 4 133 10 162 24 49 24 110 95 125 144 17 56 17 889 0 946
-16 55 -99 138 -154 154 -24 7 -102 12 -186 12 l-144 0 -18 38 c-41 87 -156
242 -255 345 -242 251 -517 402 -849 468 -103 20 -379 34 -457 23z m435 -183
c462 -93 853 -409 1040 -839 207 -477 139 -1030 -178 -1447 -25 -33 -88 -102
-139 -153 l-94 -92 -907 0 -907 0 -72 66 c-304 275 -482 709 -460 1119 20 370
162 690 422 950 243 243 498 364 880 419 67 10 324 -4 415 -23z m-1780 -853
c0 -2 -11 -36 -25 -77 -54 -159 -69 -260 -69 -476 -1 -153 3 -220 17 -288 10
-48 20 -94 23 -102 5 -12 -6 -15 -64 -15 -81 0 -115 12 -131 47 -15 34 -15
832 0 867 6 13 21 29 33 34 17 9 216 17 216 10z m3213 -9 c14 -6 30 -22 36
-36 7 -16 11 -155 11 -433 0 -278 -4 -417 -11 -433 -16 -35 -50 -47 -131 -47
-58 0 -69 3 -64 15 47 122 57 512 18 691 -12 56 -33 135 -47 175 -14 41 -25
75 -25 77 0 8 193 0 213 -9z m-2993 -1506 c30 -41 92 -114 137 -160 l83 -85
-19 -26 c-45 -65 -52 -162 -18 -232 10 -18 17 -36 17 -40 0 -3 -26 -14 -57
-24 -32 -10 -113 -44 -179 -77 l-122 -60 -36 25 c-21 14 -57 28 -82 32 l-45 6
3 272 c3 242 5 275 22 306 45 84 126 138 211 139 26 0 37 -10 85 -76z m2747
48 c44 -22 83 -62 109 -111 17 -31 19 -64 22 -306 l3 -272 -45 -6 c-25 -4 -61
-18 -82 -32 l-36 -25 -122 60 c-66 33 -147 67 -178 77 -32 10 -58 21 -58 24 0
4 7 22 17 40 34 70 27 167 -19 232 l-19 27 83 84 c46 46 108 119 138 161 l55
76 47 -4 c26 -3 64 -14 85 -25z m-3237 -369 c-6 -2 -38 -22 -71 -44 l-61 -41
-55 55 -55 55 43 34 c24 19 79 53 123 76 l81 42 3 -87 c2 -55 -1 -88 -8 -90z
m3743 55 l38 -32 -55 -54 -54 -54 -62 42 c-34 22 -66 41 -71 41 -5 0 -9 41 -9
90 l0 91 88 -46 c48 -25 104 -60 125 -78z m-1059 -68 c35 -16 52 -61 37 -98
-7 -15 -24 -33 -37 -40 -35 -16 -1793 -16 -1828 0 -35 16 -52 61 -37 98 7 16
22 33 34 39 32 15 1797 16 1831 1z m-2947 -216 c-10 -16 -33 -58 -52 -95 l-34
-66 -72 18 c-39 10 -72 20 -74 22 -7 6 74 168 106 213 l33 46 55 -56 56 -55
-18 -27z m4253 -17 c28 -54 49 -101 46 -103 -2 -3 -36 -13 -75 -23 l-72 -18
-34 66 c-19 37 -42 79 -52 94 l-18 28 55 55 54 55 23 -28 c13 -15 46 -72 73
-126z m-4008 -174 c-56 -70 -66 -145 -32 -234 l19 -52 -33 -40 c-18 -23 -49
-65 -68 -94 -20 -30 -39 -49 -42 -43 -23 36 -48 138 -53 211 -10 161 47 309
166 428 l66 66 3 -102 c3 -100 2 -103 -26 -140z m3667 124 c87 -112 129 -254
118 -391 -6 -61 -33 -164 -53 -196 -3 -6 -22 13 -42 43 -19 29 -50 71 -68 94
l-33 40 19 52 c34 88 24 164 -31 234 -28 35 -29 42 -29 138 l0 101 40 -32 c22
-18 58 -55 79 -83z m-1079 -36 c161 -20 354 -82 487 -156 l62 -35 -231 -462
c-252 -506 -256 -517 -224 -614 27 -82 130 -163 207 -163 17 0 19 -8 19 -80
l0 -80 -1120 0 -1120 0 0 80 c0 72 2 80 19 80 77 0 180 81 207 163 32 97 28
108 -224 614 l-231 462 62 35 c127 71 325 136 472 155 101 12 1511 13 1615 1z
m-2365 -162 c22 -10 72 -103 276 -510 137 -274 249 -505 249 -513 0 -57 -59
-96 -111 -75 -27 12 -56 64 -280 512 -137 274 -249 505 -249 513 0 26 22 63
44 73 28 14 40 14 71 0z m3198 1 c25 -11 47 -47 47 -74 0 -8 -112 -239 -249
-513 -224 -448 -253 -500 -280 -512 -52 -21 -111 18 -111 75 0 8 113 240 250
515 249 498 260 517 307 519 7 1 23 -4 36 -10z m-3845 -40 l52 -12 0 -86 c0
-47 3 -96 6 -108 5 -20 -1 -24 -65 -43 -38 -12 -74 -19 -80 -16 -13 9 -24 156
-16 227 7 56 9 60 29 55 11 -3 45 -11 74 -17z m4527 -39 c8 -68 -3 -217 -16
-226 -5 -3 -41 5 -80 16 -64 19 -70 24 -65 43 3 12 6 61 6 108 l0 86 63 15
c34 9 67 16 74 17 6 1 14 -23 18 -59z m-3836 -687 c109 -219 208 -407 220
-417 19 -17 21 -30 21 -133 l0 -113 -361 0 -362 0 6 212 c4 143 11 238 22 288
41 183 110 350 205 492 25 37 46 68 47 68 2 0 92 -179 202 -397z m3345 241
c57 -99 101 -210 132 -331 33 -131 44 -234 44 -415 l0 -158 -360 0 -360 0 0
113 c0 103 2 116 21 133 12 10 111 198 221 417 l199 399 29 -40 c15 -21 49
-75 74 -118z m-3891 25 l37 -71 -31 -84 -32 -83 -45 57 c-24 31 -62 92 -83
134 l-39 77 58 16 c31 9 62 18 67 20 24 9 32 1 68 -66z m4274 45 l53 -15 -39
-77 c-21 -42 -59 -103 -83 -134 l-45 -57 -32 83 -31 84 37 71 c42 79 32 76
140 45z"/>
<path d="M2385 4709 c-472 -69 -874 -399 -1033 -849 -53 -150 -67 -238 -67
-420 0 -123 5 -187 19 -250 63 -291 232 -576 392 -661 92 -50 106 -51 899 -47
l740 3 65 31 c84 40 122 73 192 170 153 214 232 437 245 694 10 222 -29 415
-127 615 -192 395 -550 655 -983 714 -91 13 -255 12 -342 0z m313 -159 c678
-85 1124 -761 936 -1417 -48 -169 -179 -393 -264 -450 -18 -13 -49 -27 -69
-33 -22 -6 -298 -10 -737 -10 -796 0 -772 -2 -850 75 -24 25 -65 77 -90 116
-296 456 -224 1043 172 1419 245 233 571 341 902 300z"/>
<path d="M2400 4389 c-92 -16 -245 -74 -331 -125 -95 -57 -209 -159 -274 -246
-52 -69 -111 -171 -120 -208 -5 -23 -1 -27 62 -50 37 -14 70 -26 74 -28 3 -1
14 17 25 40 113 252 373 435 657 464 l67 6 0 79 0 79 -52 -1 c-29 -1 -78 -5
-108 -10z"/>
<path d="M1606 3564 c-3 -26 -6 -64 -6 -85 l0 -39 79 0 78 0 7 53 c11 96 12
93 -51 106 -95 19 -99 18 -107 -35z"/>
<path d="M2002 1667 c-53 -17 -128 -90 -146 -144 -24 -70 -24 -896 0 -966 19
-57 93 -128 152 -145 28 -9 185 -12 554 -12 590 0 578 -2 651 80 24 26 49 66
55 88 17 55 17 889 0 944 -6 22 -31 62 -55 88 -73 82 -60 80 -657 79 -338 -1
-533 -5 -554 -12z m1089 -176 l29 -29 0 -422 0 -422 -29 -29 -29 -29 -502 0
-502 0 -29 29 -29 29 0 422 0 422 29 29 29 29 502 0 502 0 29 -29z"/>
<path d="M2160 1280 l0 -80 80 0 80 0 0 80 0 80 -80 0 -80 0 0 -80z"/>
<path d="M2480 1280 l0 -80 80 0 80 0 0 80 0 80 -80 0 -80 0 0 -80z"/>
<path d="M2800 1280 l0 -80 80 0 80 0 0 80 0 80 -80 0 -80 0 0 -80z"/>
</g>
</svg>
